<svg xmlns="http://www.w3.org/2000/svg" viewBox="0 0 64 64"><g id="Layer_3" data-name="Layer 3"><path d="M60.87,11.37c-.85-4.88-6-8.08-11.47-7.14a10.51,10.51,0,0,0-6.78,4.11c-.07.1-.13.2-.19.3l-13.9.47a1,1,0,0,0-.67.29L4.16,33.09A3.84,3.84,0,0,0,3,35.62a3.36,3.36,0,0,0,1,2.56L24.77,59a3.33,3.33,0,0,0,2.37,1,3.86,3.86,0,0,0,2.71-1.15l23.7-23.7a1,1,0,0,0,.29-.67l.41-12.9C58.8,20,61.62,15.72,60.87,11.37Zm-32.43,46a1.61,1.61,0,0,1-2.26.19L5.39,36.76a1.35,1.35,0,0,1-.38-1,1.91,1.91,0,0,1,.57-1.22L29,11.09,52.6,10.3,52.3,20l-.15,0a9.27,9.27,0,0,1-2.63.08,6.66,6.66,0,1,0-2,4.71,6.59,6.59,0,0,0,1.65-2.75,10.37,10.37,0,0,0,1.36.1A10,10,0,0,0,52.23,22L51.86,34ZM41.26,15.72a9,9,0,0,0,6,5.9,4.56,4.56,0,0,1-1.09,1.77,4.67,4.67,0,0,1-6.6-6.6A4.45,4.45,0,0,1,41.26,15.72Zm2-.26a4.58,4.58,0,0,1,4.22,4.14A7.05,7.05,0,0,1,43.26,15.46Zm11.06,3.88.32-10a1,1,0,0,0-1-1l-8.51.29A8.91,8.91,0,0,1,49.74,6.2c4.39-.76,8.5,1.72,9.16,5.52C59.44,14.84,57.53,17.91,54.32,19.34Z" id="id_139" style="fill: rgb(27, 139, 203);"></path><path d="M32,31a1,1,0,0,0-1.41,0l-1,1a3.19,3.19,0,0,0-2.09-.84,3,3,0,0,0-2.22.9,3.14,3.14,0,0,0,.05,4.44l1.18,1.18a1.22,1.22,0,0,1,.36.84,1.09,1.09,0,0,1-.31.77,1.15,1.15,0,0,1-.78.31,1.17,1.17,0,0,1-.83-.36L22.65,37a1,1,0,0,0-1.41,0,1,1,0,0,0,0,1.41l1,1-1,1a1,1,0,0,0,0,1.42,1,1,0,0,0,.71.29,1,1,0,0,0,.71-.29l1-1a3.14,3.14,0,0,0,2.09.84h.05a3.13,3.13,0,0,0,2.18-.9,3.06,3.06,0,0,0,.89-2.23,3.22,3.22,0,0,0-.94-2.21l-1.19-1.19a1.14,1.14,0,0,1-.05-1.61,1.17,1.17,0,0,1,.78-.31,1.24,1.24,0,0,1,.83.36l2.25,2.25a1,1,0,0,0,1.42,0,1,1,0,0,0,0-1.41l-1-1,1-1A1,1,0,0,0,32,31Z" id="id_140" style="fill: rgb(27, 139, 203);"></path><path d="M26.58,25.37a11,11,0,1,0,7.77,3.22A11,11,0,0,0,26.58,25.37Zm6.36,17.37a9,9,0,1,1,2.64-6.37A8.93,8.93,0,0,1,32.94,42.74Z" id="id_141" style="fill: rgb(27, 139, 203);"></path></g></svg>