<svg width="46" height="45" viewBox="0 0 46 45" fill="none" xmlns="http://www.w3.org/2000/svg">
<g id="free_icon_1 (1) 1">
<path id="id_101" d="M43.7984 9.05625C43.6674 8.88609 43.4992 8.74821 43.3066 8.65315C43.114 8.55809 42.9022 8.50837 42.6875 8.50781H10.5266L8.86016 3.62112C8.76622 3.34295 8.58755 3.10116 8.3492 2.92967C8.11091 2.75818 7.82487 2.66558 7.53125 2.66487H3.3125C2.93954 2.66487 2.58185 2.81303 2.31813 3.07675C2.05441 3.34048 1.90625 3.69816 1.90625 4.07112C1.90625 4.44408 2.05441 4.80177 2.31813 5.06549C2.58185 5.32922 2.93954 5.47737 3.3125 5.47737H6.52578L15.7719 32.6531C15.867 32.93 16.0462 33.1703 16.2845 33.3404C16.5227 33.5106 16.808 33.6021 17.1008 33.6023H37.0625C37.4354 33.6023 37.7931 33.4542 38.0569 33.1905C38.3206 32.9268 38.4688 32.5691 38.4688 32.1961C38.4688 31.8232 38.3206 31.4655 38.0569 31.2017C37.7931 30.9381 37.4354 30.7898 37.0625 30.7898H18.0781L17.0516 27.7594H38.4688C38.7791 27.7608 39.0811 27.6595 39.3279 27.4712C39.5746 27.283 39.7522 27.0184 39.8328 26.7188L44.0516 10.2797C44.1065 10.0701 44.1122 9.85057 44.0683 9.63837C44.0244 9.42609 43.932 9.2269 43.7984 9.05625Z" fill="#009AE0"/>
<path id="id_102" d="M21.5935 34.7978C16.6153 34.9525 16.6153 42.1736 21.5935 42.3353C26.5716 42.1876 26.5716 34.9525 21.5935 34.7978Z" fill="#009AE0"/>
<path id="id_103" d="M33.8352 34.7978C28.857 34.9525 28.857 42.1736 33.8352 42.3353C38.8133 42.1876 38.8133 34.9525 33.8352 34.7978Z" fill="#009AE0"/>
</g>
</svg>
