<svg width="41" height="45" viewBox="0 0 41 45" fill="none" xmlns="http://www.w3.org/2000/svg">
<g id="notify_icon">
<g id="Icons">
<g id="Rounded">
<g id="Social">
<g id="-Round-/-Social-/-notifications">
<g id="Group">
<path id="&#240;&#159;&#148;&#185;-Icon-Color" fill-rule="evenodd" clip-rule="evenodd" d="M20.4999 45C23.2499 45 25.4999 42.975 25.4999 40.5H15.4999C15.4999 42.975 17.7249 45 20.4999 45ZM35.4999 31.5V20.25C35.4999 13.3425 31.3999 7.56 24.2499 6.03V4.5C24.2499 2.6325 22.5749 1.125 20.4999 1.125C18.4249 1.125 16.7499 2.6325 16.7499 4.5V6.03C9.57488 7.56 5.49988 13.32 5.49988 20.25V31.5L2.27488 34.4025C0.699884 35.82 1.79988 38.25 4.02488 38.25H36.9499C39.1749 38.25 40.2999 35.82 38.7249 34.4025L35.4999 31.5Z" fill="#009AE0"/>
</g>
</g>
</g>
</g>
</g>
</g>
</svg>
