<?xml version="1.0" encoding="UTF-8"?>
<!DOCTYPE svg PUBLIC "-//W3C//DTD SVG 1.1//EN" "http://www.w3.org/Graphics/SVG/1.1/DTD/svg11.dtd">
<!-- Creator: CorelDRAW -->
<svg xmlns="http://www.w3.org/2000/svg" xml:space="preserve" width="1.70666in" height="1.70666in" version="1.1" style="shape-rendering:geometricPrecision; text-rendering:geometricPrecision; image-rendering:optimizeQuality; fill-rule:evenodd; clip-rule:evenodd"
viewBox="0 0 1707 1707"
 xmlns:xlink="http://www.w3.org/1999/xlink">
 <defs>
  <style type="text/css">
   <![CDATA[
    .fil2 {fill:#A52B25;fill-rule:nonzero}
    .fil4 {fill:url(#id0)}
    .fil0 {fill:url(#id1)}
    .fil3 {fill:url(#id2);fill-rule:nonzero}
    .fil1 {fill:url(#id3);fill-rule:nonzero}
    .fil5 {fill:url(#id4);fill-rule:nonzero}
   ]]>
  </style>
  <linearGradient id="id0" gradientUnits="userSpaceOnUse" x1="1199.35" y1="869.091" x2="1199.35" y2="92.8898">
   <stop offset="0" style="stop-opacity:1; stop-color:#FBFBFB"/>
   <stop offset="1" style="stop-opacity:1; stop-color:#F9F9F9"/>
  </linearGradient>
  <linearGradient id="id1" gradientUnits="userSpaceOnUse" x1="789.146" y1="458.181" x2="789.146" y2="1706.66">
   <stop offset="0" style="stop-opacity:1; stop-color:#E0AC69"/>
   <stop offset="1" style="stop-opacity:1; stop-color:#F1C27D"/>
  </linearGradient>
  <linearGradient id="id2" gradientUnits="userSpaceOnUse" x1="1199.35" y1="0" x2="1199.35" y2="961.969">
   <stop offset="0" style="stop-opacity:1; stop-color:red"/>
   <stop offset="1" style="stop-opacity:1; stop-color:#990000"/>
  </linearGradient>
  <linearGradient id="id3" gradientUnits="userSpaceOnUse" xlink:href="#id2" x1="195.205" y1="420.52" x2="195.205" y2="1134.72">
  </linearGradient>
  <linearGradient id="id4" gradientUnits="userSpaceOnUse" xlink:href="#id2" x1="1199.35" y1="247.984" x2="1199.35" y2="714">
  </linearGradient>
 </defs>
 <g id="Layer_x0020_1">
  <metadata id="CorelCorpID_0Corel-Layer"/>
  <path class="fil0" d="M793 458c-1,0 -1,0 -2,0 -76,8 -156,17 -226,26 -98,12 -200,24 -223,20 -14,-2 -27,8 -29,22 -2,12 4,23 15,27l0 452c-3,1 -5,2 -7,4 -11,10 -12,26 -2,37 154,171 331,395 329,609 0,8 4,16 11,21 75,53 124,25 146,4 83,-82 71,-325 2,-435 -2,-9 -1,-24 5,-30 6,-6 23,-6 45,0 86,31 278,44 356,-36 25,-25 48,-69 25,-141 13,-27 43,-97 19,-161 -3,-11 -13,-17 -24,-17 -3,0 -5,0 -8,1 -45,-91 -210,-390 -406,-381 -2,-13 -13,-22 -26,-22z"/>
  <path class="fil1" d="M338 421l-286 0c-14,0 -26,11 -26,25l0 663c0,14 12,26 26,26l286 0c14,0 26,-12 26,-26l0 -663c0,-14 -12,-25 -26,-25z"/>
  <path class="fil2" d="M195 521c-43,0 -79,35 -79,79 0,43 36,78 79,78 44,0 79,-35 79,-78 0,-44 -35,-79 -79,-79z"/>
  <path class="fil3" d="M1199 0c-265,0 -481,216 -481,481 0,265 216,481 481,481 266,0 481,-216 481,-481 0,-265 -215,-481 -481,-481z"/>
  <path class="fil4" d="M1199 93c-214,0 -388,174 -388,388 0,214 174,388 388,388 214,0 388,-174 388,-388 0,-214 -174,-388 -388,-388z"/>
  <path class="fil5" d="M1318 714c-8,0 -16,-3 -22,-9l-97 -97 -96 97c-12,12 -33,12 -45,0l-82 -83c-13,-12 -13,-32 0,-45l96 -96 -96 -96c-13,-13 -13,-33 0,-45l82 -83c12,-12 33,-12 45,0l96 97 97 -97c12,-12 32,-12 44,0l83 83c6,6 9,14 9,22 0,9 -3,17 -9,23l-96 96 96 96c6,6 9,14 9,23 0,8 -3,16 -9,22l-83 83c-6,6 -14,9 -22,9z"/>
 </g>
</svg>
