<svg width="46" height="45" viewBox="0 0 46 45" fill="none" xmlns="http://www.w3.org/2000/svg">
<g id="user_icon">
<g id="Group">
<g id="Group_2">
<path id="id_101" d="M22.9999 22.5003C26.1062 22.5003 28.7575 21.4012 30.9545 19.2041C33.1517 17.007 34.2505 14.3557 34.2505 11.2499C34.2505 8.14451 33.1517 5.49313 30.9545 3.29551C28.7567 1.0985 26.1054 0 22.9999 0C19.8944 0 17.2426 1.0985 15.0456 3.29551C12.8482 5.49313 11.7495 8.14441 11.7495 11.2499C11.7495 14.3557 12.8482 17.007 15.0456 19.2041C17.2433 21.4012 19.8943 22.5003 22.9999 22.5003Z" fill="#009AE0"/>
<path id="id_102" d="M43.5224 34.38C43.4539 33.394 43.317 32.3292 43.1123 31.1865C42.9071 30.0437 42.648 28.9847 42.3355 28.0076C42.0229 27.0314 41.6029 26.0791 41.0755 25.1512C40.5484 24.2235 39.943 23.4326 39.2589 22.778C38.5749 22.1237 37.7401 21.6015 36.7545 21.211C35.7676 20.8205 34.6787 20.625 33.4872 20.625C33.3116 20.625 32.9014 20.8349 32.2567 21.2549C31.6127 21.6749 30.8851 22.1438 30.0745 22.6616C29.2641 23.1784 28.2088 23.6476 26.9105 24.0669C25.6115 24.4869 24.308 24.697 22.999 24.697C21.6904 24.697 20.3868 24.4869 19.0881 24.0669C17.7895 23.6476 16.7345 23.1784 15.9239 22.6616C15.1134 22.1438 14.386 21.675 13.7416 21.2549C13.0968 20.8349 12.6869 20.625 12.5111 20.625C11.3197 20.625 10.2308 20.8205 9.24454 21.211C8.25809 21.6015 7.42321 22.1241 6.73948 22.778C6.05596 23.4326 5.45042 24.2235 4.92328 25.1512C4.39615 26.0791 3.97624 27.0318 3.66367 28.0076C3.35121 28.9847 3.09231 30.0437 2.88728 31.1865C2.68205 32.3292 2.54537 33.3932 2.47692 34.38C2.40858 35.3667 2.37451 36.3775 2.37451 37.4127C2.37451 39.756 3.08759 41.6071 4.51323 42.9646C5.93918 44.3216 7.83388 45 10.1971 45H35.8031C38.1662 45 40.0607 44.3216 41.4868 42.9646C42.9133 41.6071 43.6259 39.7563 43.6259 37.4127C43.6256 36.3775 43.5916 35.3667 43.5224 34.38Z" fill="#009AE0"/>
</g>
</g>
</g>
</svg>
